# xmcd CD database file
#
# Track frame offsets:
#	150
#	16436
#	33173
#	49271
#	65632
#	82589
#	96979
#	113710
#	136048
#	149120
#	165195
#	180249
#	196421
#	222808
#
# Disc length: 3724 seconds
#
# Revision: 0
# Processed by: cddbd v1.5.2PL0 Copyright (c) Steve Scherf et al.
# Submitted via: cdripper 1,0,33,916
#
DISCID=b50e8a0e
DTITLE=Dianna Corcoran - Then There's Me
DYEAR=2006
DGENRE=Country
TTITLE0=Then There's Me
TTITLE1=All Gone Blue
TTITLE2=I'm Not Who You Think I Am
TTITLE3=Stepping Stones
TTITLE4=If You Hear Angels
TTITLE5=Little Crush
TTITLE6=Don't Go Talkin' Down
TTITLE7=Love Wins
TTITLE8=Lovin' Recklessly
TTITLE9=Spackled Up Heart
TTITLE10=This Woman
TTITLE11=Weight Of The World
TTITLE12=You Were Never Mine
TTITLE13=Then There's Me - Bonus Video Clip
EXTD=YEAR: 2006
EXTT0=
EXTT1=
EXTT2=
EXTT3=
EXTT4=
EXTT5=
EXTT6=
EXTT7=
EXTT8=
EXTT9=
EXTT10=
EXTT11=
EXTT12=
EXTT13=
PLAYORDER=
